<svg viewBox="0 0 128 128" xmlns="http://www.w3.org/2000/svg"><g fill="#2f406a"><path d="m46.29 56.56q-3.15 0-3.15 2.37a2 2 0 0 0 .72 1.82 9.66 9.66 0 0 0 2.94 1 7.47 7.47 0 0 1 3.15 1.25 3.24 3.24 0 0 1 .92 2.59q0 4.47-4.64 4.47a26 26 0 0 1 -3.84-.36l-.76-.1.17-1.34a36 36 0 0 0 4.35.38q3.11 0 3.11-2.92a2 2 0 0 0 -.69-1.72 6.64 6.64 0 0 0 -2.57-.83 8.59 8.59 0 0 1 -3.49-1.35 3.38 3.38 0 0 1 -1-2.78q0-3.91 4.68-3.91a25.83 25.83 0 0 1 3.68.31l.71.11-.15 1.36a39.48 39.48 0 0 0 -4.14-.35z"/><path d="m60.53 68.59.61-.06v1.24a30.21 30.21 0 0 1 -4.1.34 3.69 3.69 0 0 1 -3.21-1.31 7 7 0 0 1 -.95-4.08q0-5.52 4.39-5.52a4 4 0 0 1 3.17 1.19 5.53 5.53 0 0 1 1.05 3.73l-.08 1.2h-6.89a4.31 4.31 0 0 0 .63 2.58 2.58 2.58 0 0 0 2.19.84q1.57-.03 3.19-.15zm-.53-4.59a4.56 4.56 0 0 0 -.62-2.73 2.39 2.39 0 0 0 -2-.8 2.58 2.58 0 0 0 -2.1.84 4.24 4.24 0 0 0 -.78 2.69z"/><path d="m67.48 70.1a3.52 3.52 0 0 1 -3-1.24 7.29 7.29 0 0 1 -.91-4.2 6.44 6.44 0 0 1 1.09-4.22q1.09-1.26 3.86-1.26l3.51.21v15.16h-1.59v-5.14a6.89 6.89 0 0 1 -2.96.69zm1-9.56a3.09 3.09 0 0 0 -2.68 1 5.49 5.49 0 0 0 -.7 3.14 6.14 6.14 0 0 0 .58 3.09 2.1 2.1 0 0 0 1.94.93 6.66 6.66 0 0 0 2.42-.46l.38-.15v-7.42q-1.28-.12-1.91-.12z"/><path d="m81.59 59.39h1.58v10.5h-1.58v-.73a6 6 0 0 1 -3.11.94q-2.14 0-2.85-1.11a8.38 8.38 0 0 1 -.7-4.12v-5.48h1.57v5.46a7.72 7.72 0 0 0 .4 3.07q.4.78 1.81.78a5.21 5.21 0 0 0 1.41-.2 6.42 6.42 0 0 0 1.09-.39l.38-.19z"/><path d="m93.33 68.59.61-.06v1.24a30.21 30.21 0 0 1 -4.1.34 3.69 3.69 0 0 1 -3.21-1.31 7 7 0 0 1 -.95-4.08q0-5.52 4.39-5.52a4 4 0 0 1 3.17 1.19 5.53 5.53 0 0 1 1.05 3.73l-.08 1.2h-6.88a4.31 4.31 0 0 0 .67 2.55 2.58 2.58 0 0 0 2.19.84q1.52 0 3.14-.12zm-.57-4.59a4.56 4.56 0 0 0 -.62-2.73 2.39 2.39 0 0 0 -2-.8 2.58 2.58 0 0 0 -2.1.84 4.24 4.24 0 0 0 -.74 2.69z"/><path d="m96.92 69.89v-15.08h1.58v15.08z"/><path d="m101.65 57v-1.81h1.57v1.81zm0 12.87v-10.48h1.57v10.5z"/><path d="m105.62 60.8v-1.41h7.79v1.41l-5.88 7.69h5.88v1.41h-7.79v-1.42l5.88-7.69z"/><path d="m122.88 68.59.61-.06v1.24a30.21 30.21 0 0 1 -4.1.34 3.69 3.69 0 0 1 -3.21-1.31 7 7 0 0 1 -.95-4.08q0-5.52 4.39-5.52a4 4 0 0 1 3.17 1.19 5.53 5.53 0 0 1 1.05 3.73l-.08 1.2h-6.93a4.31 4.31 0 0 0 .63 2.58 2.58 2.58 0 0 0 2.19.84q1.61-.03 3.23-.15zm-.57-4.59a4.56 4.56 0 0 0 -.62-2.73 2.39 2.39 0 0 0 -2-.8 2.58 2.58 0 0 0 -2.1.84 4.24 4.24 0 0 0 -.72 2.69z"/><path d="m33 56.92v14.14l-12 7.11-.11.1v5.29l.11.1 16.92-9.78v-19.7h-.16l-4.76 2.63v.12"/><path d="m8.94 71.18 12.06 7v5.49l-17-9.82v-19.63h.17l4.71 2.78.05.16v14.02"/><path d="m8.94 57.12-5-2.9 17.06-9.82 17 9.78-5 2.74-12-6.92-12 7.07"/><path d="m10.1 70.4v-5.76l.13.08 4.63 2.7v5.58z"/><path d="m27.08 73.16v-5.63l4.55-2.66.14-.08v5.59l-4.72 2.79"/><path d="m21.2 76.62-.13-.13v-5.49l.16-.06 4.55-2.66.14-.08v5.58z"/><path d="m16.4 74v-5.77l.13.07 4.63 2.7v5.62z"/><path d="m20.71 50.93-4.71 2.8 4.8 2.79 4.72-2.76-4.8-2.83"/><path d="m10.1 62.87v-5.68h.13l4.63 2.7v.11 5.51l-4.8-2.62"/><path d="m14.83 54.39-4.73 2.8 4.81 2.81 4.72-2.76-4.8-2.83"/><path d="m27.08 65.62v-5.51-.13l4.55-2.66h.14v5.47l-4.72 2.79"/><path d="m27 54.53-4.72 2.79 4.8 2.79 4.72-2.76z"/><path d="m21.2 69.09-.13-.09v-5.35l.13-.07v-.13l4.55-2.66h.14v5.51z"/><path d="m16.4 66.47v-5.69h.13l4.63 2.7v.11 5.51l-4.8-2.62"/><path d="m21.13 58-4.73 2.78 4.8 2.79 4.72-2.76z"/></g></svg>